<svg width="18" height="20" viewBox="0 0 18 20" fill="none" xmlns="http://www.w3.org/2000/svg">
<path d="M15.6238 10.9764C15.6708 10.6551 15.6946 10.3265 15.6946 9.99982C15.6946 6.31053 12.6932 3.30908 9.00388 3.30908C7.61079 3.30908 6.27548 3.73311 5.14228 4.53533C4.03419 5.31975 3.19982 6.40432 2.72935 7.67182C2.67298 7.82365 2.7504 7.9924 2.90224 8.04877C3.054 8.10506 3.22278 8.02771 3.27915 7.87592C3.70837 6.71955 4.46978 5.72994 5.4811 5.014C6.5147 4.28232 7.73286 3.89557 9.00384 3.89557C12.3697 3.89557 15.1081 6.63393 15.1081 9.99982C15.1081 10.2982 15.0863 10.5983 15.0434 10.8915C15.02 11.0518 15.1309 11.2007 15.2912 11.2241C15.3055 11.2262 15.3199 11.2272 15.334 11.2272C15.4772 11.2272 15.6025 11.1223 15.6238 10.9764Z" fill="#212121"/>
<path d="M15.0934 11.9871C14.942 11.9299 14.7726 12.0062 14.7154 12.1577C14.2816 13.3055 13.5196 14.287 12.5116 14.9962C11.4811 15.7212 10.268 16.1044 9.00328 16.1044C5.63738 16.1044 2.89902 13.3661 2.89902 10.0002C2.89902 9.71573 2.91875 9.42972 2.9577 9.15014C2.98008 8.98975 2.86816 8.84159 2.70773 8.81925C2.54715 8.7969 2.39918 8.90882 2.3768 9.06921C2.33414 9.3755 2.3125 9.68874 2.3125 10.0002C2.3125 13.6895 5.31394 16.6909 9.00324 16.6909C10.3894 16.6909 11.7193 16.2708 12.8491 15.4758C13.9535 14.6988 14.7885 13.6231 15.2639 12.3651C15.3213 12.2135 15.2448 12.0443 15.0934 11.9871Z" fill="#212121"/>
<path d="M9.00418 2.59422C9.16613 2.59422 9.29742 2.46293 9.29742 2.30098V0.293242C9.29742 0.131289 9.16613 0 9.00418 0C8.84223 0 8.71094 0.131289 8.71094 0.293242V2.30098C8.71094 2.46293 8.84223 2.59422 9.00418 2.59422Z" fill="#212121"/>
<path d="M9.00418 17.4058C8.84223 17.4058 8.71094 17.5371 8.71094 17.699V19.7067C8.71094 19.8687 8.84219 20 9.00418 20C9.16617 20 9.29742 19.8687 9.29742 19.7067V17.699C9.29742 17.5371 9.16613 17.4058 9.00418 17.4058Z" fill="#212121"/>
<path d="M4.89929 3.4791C4.95359 3.57317 5.05218 3.62578 5.15351 3.62578C5.20327 3.62578 5.2537 3.61313 5.29988 3.58645C5.44011 3.50547 5.4882 3.32613 5.40722 3.18586L4.97695 2.44063C4.89601 2.30035 4.71659 2.25231 4.57636 2.33328C4.43613 2.41426 4.38804 2.5936 4.46902 2.73387L4.89929 3.4791Z" fill="#212121"/>
<path d="M13.1019 16.5207C13.021 16.3804 12.8416 16.3324 12.7014 16.4134C12.5611 16.4943 12.513 16.6737 12.594 16.8139L13.0243 17.5592C13.0786 17.6532 13.1772 17.7059 13.2785 17.7059C13.3283 17.7059 13.3787 17.6932 13.4249 17.6665C13.5651 17.5855 13.6132 17.4062 13.5322 17.2659L13.1019 16.5207Z" fill="#212121"/>
<path d="M1.30223 10.293C1.46418 10.293 1.59547 10.1617 1.59547 9.99979C1.59547 9.83783 1.46422 9.70654 1.30223 9.70654H0.44168C0.279727 9.70654 0.148438 9.83783 0.148438 9.99979C0.148438 10.1617 0.279727 10.293 0.44168 10.293H1.30223Z" fill="#212121"/>
<path d="M17.56 9.70654H16.6995C16.5375 9.70654 16.4062 9.83783 16.4062 9.99979C16.4062 10.1617 16.5375 10.293 16.6995 10.293H17.56C17.722 10.293 17.8533 10.1617 17.8533 9.99979C17.8533 9.83783 17.722 9.70654 17.56 9.70654Z" fill="#212121"/>
<path d="M5.29988 16.4134C5.15953 16.3324 4.98027 16.3804 4.8993 16.5207L4.46902 17.266C4.38805 17.4063 4.4361 17.5856 4.57637 17.6666C4.62258 17.6933 4.67297 17.7059 4.72274 17.7059C4.82406 17.7059 4.92266 17.6533 4.97695 17.5592L5.40723 16.814C5.4882 16.6737 5.44012 16.4944 5.29988 16.4134Z" fill="#212121"/>
<path d="M12.7014 3.58649C12.7476 3.61317 12.798 3.62582 12.8477 3.62582C12.9491 3.62582 13.0476 3.5732 13.1019 3.47914L13.5322 2.73387C13.6132 2.5936 13.5651 2.41426 13.4249 2.33328C13.2846 2.25231 13.1053 2.30035 13.0243 2.44063L12.594 3.18586C12.513 3.32617 12.5611 3.50551 12.7014 3.58649Z" fill="#212121"/>
<path d="M0.45136 5.4008L2.19015 6.40467C2.23636 6.43135 2.28675 6.444 2.33652 6.444C2.43784 6.444 2.53644 6.39139 2.59074 6.29732C2.67171 6.15705 2.62367 5.97771 2.48339 5.89674L0.744602 4.89287C0.60429 4.81185 0.424993 4.85994 0.344016 5.00021C0.26304 5.14049 0.311126 5.31982 0.45136 5.4008Z" fill="#212121"/>
<path d="M17.5537 14.5994L15.8149 13.5955C15.6746 13.5145 15.4953 13.5626 15.4143 13.7029C15.3334 13.8431 15.3814 14.0225 15.5217 14.1034L17.2605 15.1073C17.3067 15.134 17.3571 15.1466 17.4068 15.1466C17.5082 15.1466 17.6068 15.094 17.6611 15C17.742 14.8597 17.6939 14.6804 17.5537 14.5994Z" fill="#212121"/>
<path d="M2.19015 13.5955L0.45136 14.5994C0.311126 14.6803 0.26304 14.8597 0.344016 14.9999C0.398313 15.094 0.496907 15.1466 0.598235 15.1466C0.648001 15.1466 0.69843 15.134 0.744602 15.1073L2.48339 14.1034C2.62363 14.0224 2.67171 13.8431 2.59074 13.7028C2.50976 13.5626 2.33034 13.5145 2.19015 13.5955Z" fill="#212121"/>
<path d="M15.6685 6.44399C15.7183 6.44399 15.7687 6.43133 15.8149 6.40465L17.5537 5.40078C17.6939 5.31981 17.742 5.14047 17.661 5.0002C17.5801 4.85992 17.4007 4.81188 17.2605 4.89285L15.5217 5.89672C15.3814 5.9777 15.3334 6.15703 15.4143 6.29731C15.4686 6.39141 15.5672 6.44399 15.6685 6.44399Z" fill="#212121"/>
</svg>
