<svg width="17" height="11" viewBox="0 0 17 11" fill="none" xmlns="http://www.w3.org/2000/svg">
<path d="M4.20724 6.39243C2.49242 6.8818 1.13917 8.4 0.632812 10.3825C1.37119 10.6972 3.72708 11.5138 5.98193 10.2933C7.17254 9.64934 7.87954 8.70197 8.28342 7.95525C8.00045 7.70769 7.44515 7.17859 6.95204 6.45835C6.28045 6.24993 5.28904 6.08412 4.20724 6.39243Z" fill="#fcac04"/>
<path d="M13.0834 6.39219C12.0019 6.08331 11.0108 6.2497 10.3392 6.45811C9.84608 7.17835 9.29078 7.70774 9.00781 7.95501C9.41169 8.70202 10.1184 9.6491 11.309 10.2931C13.5641 11.5136 15.9198 10.6964 16.6581 10.3823C16.1518 8.39948 14.7982 6.88156 13.0834 6.39219Z" fill="#fcac04"/>
<path d="M8.64566 0.0576172C8.11742 0.529429 6.59375 2.04072 6.59375 3.78202C6.59375 5.52332 8.11714 7.03462 8.64537 7.50643C9.17389 7.03433 10.697 5.52332 10.697 3.78202C10.697 2.04072 9.17418 0.528277 8.64566 0.0576172Z" fill="#fcac04"/>
</svg>
